<svg id="Layer_1" data-name="Layer 1" xmlns="http://www.w3.org/2000/svg" viewBox="0 0 133.08 126.6"><defs><style>.cls-1{fill:#fff;fill-rule:evenodd;}</style></defs><title>Artboard 1</title><path class="cls-1" d="M56,94.5a9.25,9.25,0,0,0,9.24-9.24V64.62H43.68A9.25,9.25,0,0,0,36.62,68a9.22,9.22,0,0,0-1.8,3.59,9.4,9.4,0,0,0-.1,4,9.26,9.26,0,0,0,12.46,6.82A9.24,9.24,0,0,0,56,94.5ZM77.1,32.1a9.25,9.25,0,0,0-9.24,9.24V62H89.4a9.26,9.26,0,0,0,9-11,9.44,9.44,0,0,0-1.62-3.68,9.24,9.24,0,0,0-6.87-3.76,9.3,9.3,0,0,0-4,.62,9.23,9.23,0,0,0-1.34-8.26A9.26,9.26,0,0,0,77.1,32.1Z"/><path class="cls-1" d="M56,32.1a9.25,9.25,0,0,1,9.24,9.24V62H43.68a9.26,9.26,0,0,1-9-11,9.44,9.44,0,0,1,1.62-3.68,9.24,9.24,0,0,1,6.87-3.76,9.3,9.3,0,0,1,4,.62,9,9,0,0,1-.32-4.29A9.2,9.2,0,0,1,51.8,33.1,9.24,9.24,0,0,1,56,32.1Zm21.1,62.4a9.25,9.25,0,0,1-9.24-9.24V64.62H89.4A9.25,9.25,0,0,1,96.46,68a9.22,9.22,0,0,1,1.8,3.59,9.4,9.4,0,0,1,.1,4A9.26,9.26,0,0,1,85.9,82.46a9.24,9.24,0,0,1-8.81,12Z"/></svg>