<svg width="164" height="159" viewBox="0 0 164 159" fill="none" xmlns="http://www.w3.org/2000/svg">
<path fill-rule="evenodd" clip-rule="evenodd" d="M54.9497 159C61.226 158.993 67.2433 156.51 71.6813 152.096C76.1193 147.683 78.6155 141.698 78.6223 135.456V82.8634H23.3863C19.9216 82.8966 16.5065 83.685 13.3814 85.173C10.2563 86.6611 7.49731 88.8125 5.29875 91.4759C3.10444 94.151 1.52991 97.2743 0.687207 100.623C-0.132654 103.963 -0.220028 107.439 0.431015 110.816C1.10637 114.201 2.52017 117.398 4.57274 120.18C6.62531 122.963 9.26666 125.264 12.3106 126.921C15.3545 128.578 18.7268 129.551 22.1898 129.771C25.6528 129.991 29.1221 129.452 32.3531 128.194C31.1992 131.733 30.9051 135.494 31.4951 139.169C32.0851 142.843 33.5422 146.326 35.7472 149.332C37.9521 152.338 40.8419 154.781 44.1798 156.462C47.5177 158.142 51.2085 159.012 54.9497 159ZM109.007 0C102.731 0.00674473 96.7137 2.48946 92.2757 6.90339C87.8377 11.3173 85.3414 17.302 85.3347 23.5442V76.1874H140.519C143.992 76.152 147.415 75.3587 150.545 73.8637C153.676 72.3686 156.438 70.2081 158.637 67.5349C160.837 64.8616 162.419 61.7408 163.272 58.3927C164.126 55.0447 164.23 51.5511 163.577 48.1586C162.887 44.7728 161.471 41.5746 159.427 38.7817C157.377 36.0003 154.739 33.7005 151.697 32.045C148.656 30.3894 145.286 29.4186 141.826 29.2009C138.335 28.9728 134.836 29.5122 131.578 30.7807C132.713 27.2516 132.994 23.5056 132.398 19.848C131.801 16.1905 130.344 12.7249 128.145 9.73364C125.951 6.72734 123.074 4.27884 119.748 2.58742C116.423 0.896006 112.742 0.00947558 109.007 0Z" fill="white"/>
<path fill-rule="evenodd" clip-rule="evenodd" d="M55.044 5.00595e-05C61.3203 0.00679479 67.3375 2.48951 71.7756 6.90345C76.2136 11.3174 78.7098 17.302 78.7166 23.5443V76.1875H23.4805C20.0079 76.1521 16.5854 75.3588 13.4548 73.8637C10.3241 72.3687 7.56173 70.2082 5.3626 67.5349C3.16347 64.8617 1.58126 61.7408 0.72771 58.3928C-0.125841 55.0447 -0.229919 51.5511 0.422827 48.1587C1.11319 44.7729 2.52875 41.5747 4.57321 38.7818C6.62254 36.0003 9.26115 33.7006 12.3025 32.045C15.3439 30.3895 18.7138 29.4186 22.1739 29.201C25.6651 28.9729 29.1639 29.5123 32.4218 30.7808C31.2641 27.2566 30.9828 23.5057 31.602 19.8496C32.1824 16.1713 33.6355 12.6834 35.8408 9.67475C38.0462 6.66607 40.9403 4.2231 44.2837 2.54813C47.6178 0.865576 51.3052 -0.00761721 55.044 5.00595e-05ZM109.102 159C102.825 158.993 96.808 156.511 92.37 152.097C87.932 147.683 85.4357 141.698 85.4289 135.456V82.8635H140.614C144.078 82.8967 147.493 83.6851 150.619 85.1731C153.744 86.6612 156.503 88.8126 158.701 91.476C160.896 94.1511 162.47 97.2744 163.313 100.624C164.133 103.963 164.22 107.44 163.569 110.816C162.909 114.212 161.507 117.423 159.461 120.221C157.415 123.018 154.776 125.334 151.73 127.005C148.684 128.675 145.306 129.659 141.836 129.886C138.365 130.114 134.887 129.579 131.647 128.321C132.756 131.845 133.016 135.578 132.406 139.221C131.796 142.863 130.334 146.311 128.137 149.287C125.94 152.264 123.07 154.684 119.759 156.354C116.448 158.023 112.788 158.895 109.076 158.898L109.102 159Z" fill="white"/>
</svg>
